<svg xmlns="http://www.w3.org/2000/svg" xmlns:xlink="http://www.w3.org/1999/xlink" x="0px" y="0px"
	 viewBox="0 0 20 20" style="enable-background:new 0 0 20 20;" xml:space="preserve">
<g>
	<path style="fill:#222222;" d="M9.98876,2.52028c2.8004,0,5.6008-0.00208,8.40119,0.00112
		c0.98682,0.00113,1.55743,0.4502,1.57303,1.22057c0.01567,0.77425-0.56557,1.26922-1.52503,1.2698
		C12.78531,5.01517,7.13265,5.01104,1.48,5.01676C0.88422,5.01736,0.33843,4.8587,0.17155,4.26739
		C0.06606,3.8936,0.08291,3.30945,0.30953,3.06219c0.28445-0.31037,0.83745-0.51215,1.2784-0.51919
		C4.38762,2.4983,7.18836,2.52028,9.98876,2.52028z"/>
	<path style="fill:#222222;" d="M9.91479,11.24676c-2.77447,0-5.54893,0.0024-8.32339-0.00129
		c-0.98968-0.00132-1.55434-0.45099-1.56651-1.22751c-0.0122-0.77857,0.56134-1.2623,1.52907-1.26285
		c5.62671-0.00318,11.25343-0.00317,16.88015,0c0.96359,0.00054,1.5423,0.48912,1.52888,1.26425
		c-0.01334,0.77028-0.58603,1.22489-1.56922,1.22613C15.56744,11.24908,12.74111,11.24676,9.91479,11.24676z"/>
	<path style="fill:#222222;" d="M9.92659,17.48003c-2.77446,0-5.54893,0.0022-8.32339-0.00117
		c-0.9955-0.00121-1.55879-0.44167-1.57833-1.21582c-0.02014-0.7983,0.56836-1.27492,1.59504-1.27529
		c5.60079-0.002,11.20158-0.00322,16.80236,0.00087c1.21259,0.00088,1.89833,0.92836,1.37676,1.84392
		c-0.30915,0.54267-0.81124,0.65485-1.3935,0.65255C15.57927,17.47388,12.75292,17.48003,9.92659,17.48003z"/>
</g>
</svg>
