<svg xmlns="http://www.w3.org/2000/svg" xmlns:xlink="http://www.w3.org/1999/xlink" x="0px" y="0px"
	 viewBox="0 0 20 20" style="enable-background:new 0 0 20 20;" xml:space="preserve">
<g>
	<path style="fill:#222222;" d="M9.98828,11.95532c-1.49846,1.49964-2.95201,2.95459-4.40592,4.40919
		c-0.3885,0.38869-0.7672,0.78801-1.16969,1.16167c-0.62537,0.58057-1.41752,0.59755-1.96991,0.06433
		c-0.57105-0.55124-0.57318-1.38904,0.0466-2.01677c1.70532-1.72717,3.42899-3.4362,5.14375-5.15407
		c0.1255-0.12572,0.2377-0.26472,0.42366-0.47335C7.5596,9.46728,7.07888,9.01656,6.61204,8.5519
		c-1.34703-1.34077-2.69286-2.68282-4.0303-4.03314C1.88897,3.81932,1.84459,2.97801,2.44545,2.40107
		c0.58221-0.55903,1.39311-0.50593,2.06873,0.16475c1.64134,1.62934,3.27228,3.26914,4.90855,4.90359
		c0.17516,0.17496,0.35784,0.3424,0.5727,0.54735c0.20611-0.19161,0.39111-0.35336,0.56469-0.52657
		c1.6371-1.63361,3.26915-3.2723,4.90942-4.90272c0.70268-0.69846,1.53305-0.75313,2.11693-0.16088
		c0.58221,0.59056,0.51927,1.40882-0.18748,2.11779c-1.79246,1.7981-3.59292,3.58823-5.44103,5.4323
		c0.20277,0.21364,0.3665,0.39396,0.53843,0.56609c1.65056,1.65254,3.30791,3.29834,4.9516,4.95768
		c0.74406,0.75114,0.69819,1.72293-0.07675,2.23986c-0.60996,0.40688-1.26394,0.30087-1.90404-0.33557
		c-1.65626-1.64682-3.30516-3.30105-4.95784-4.95148C10.36439,12.30848,10.21322,12.1699,9.98828,11.95532z"/>
</g>
</svg>
