<svg xmlns="http://www.w3.org/2000/svg" xmlns:xlink="http://www.w3.org/1999/xlink" x="0px" y="0px"
	 viewBox="0 0 197 182" style="enable-background:new 0 0 197 182;" xml:space="preserve">
<path d="M191.60178,6.65421c-0.82834-0.72519-2.00623-0.89413-3.005-0.431
	L8.15378,89.99222c-1.3913,0.64541-1.99594,2.29648-1.35052,3.68776c0.26785,0.57738,0.72592,1.04524,1.29752,1.32524l51.065,25.039
	c0.93713,0.45985,2.05289,0.35596,2.88901-0.269l49.64999-37.077l-38.97699,40.059c-0.556,0.57137-0.83972,1.35407-0.77899,2.149
	l3.88101,50.5c0.1217,1.53163,1.46201,2.67461,2.99362,2.5529c0.72861-0.05789,1.40515-0.40019,1.88339-0.9529l27.10001-31.382
	l33.50601,16c1.38681,0.66142,3.04721,0.07338,3.70862-1.31343c0.05585-0.11705,0.10342-0.23787,0.1424-0.36157L192.42078,9.57521
	C192.75125,8.52529,192.42993,7.37928,191.60178,6.65421z"/>
</svg>
