<svg xmlns="http://www.w3.org/2000/svg" viewBox="0 0 20 20"><path d="M9.989 2.52c2.8 0 5.6-.002 8.4.001.988.002 1.558.45 1.574 1.221.016.774-.566 1.27-1.525 1.27-5.653.003-11.305-.001-16.958.005-.596 0-1.142-.158-1.308-.75-.106-.373-.09-.958.138-1.205.284-.31.837-.512 1.278-.519 2.8-.045 5.6-.023 8.4-.023zm-.074 8.727c-2.775 0-5.55.002-8.324-.002-.99 0-1.554-.45-1.566-1.227-.012-.779.561-1.262 1.529-1.263 5.627-.003 11.253-.003 16.88 0 .964 0 1.542.49 1.529 1.264-.013.77-.586 1.225-1.57 1.226-2.826.004-5.652.002-8.478.002zm.012 6.233c-2.775 0-5.55.002-8.324-.001-.995-.001-1.559-.442-1.578-1.216-.02-.798.568-1.275 1.595-1.275 5.6-.002 11.201-.003 16.802 0 1.213.002 1.899.929 1.377 1.845-.31.542-.811.654-1.393.652-2.827-.011-5.653-.005-8.48-.005z" fill="#222"/></svg>