<svg xmlns="http://www.w3.org/2000/svg" viewBox="0 0 20 20"><path d="M9.988 11.955l-4.406 4.41c-.388.388-.767.788-1.17 1.161-.625.58-1.417.598-1.97.065-.57-.552-.572-1.39.047-2.017 1.706-1.727 3.43-3.436 5.144-5.154.126-.126.238-.265.424-.474-.497-.479-.978-.93-1.445-1.394a800.689 800.689 0 01-4.03-4.033c-.693-.7-.737-1.541-.137-2.118.583-.559 1.394-.506 2.07.165 1.64 1.63 3.271 3.269 4.908 4.903.175.175.358.343.572.548.207-.192.392-.354.565-.527 1.637-1.633 3.27-3.272 4.91-4.903.702-.698 1.533-.753 2.116-.16.583.59.52 1.408-.187 2.117-1.792 1.798-3.593 3.589-5.441 5.433.203.213.366.394.538.566 1.65 1.652 3.308 3.298 4.952 4.957.744.752.698 1.723-.077 2.24-.61.407-1.264.301-1.904-.335-1.656-1.647-3.305-3.301-4.958-4.952-.145-.145-.296-.283-.52-.498z" fill="#222"/></svg>